<?xml version="1.0" standalone="no"?><!DOCTYPE svg PUBLIC "-//W3C//DTD SVG 1.1//EN" "http://www.w3.org/Graphics/SVG/1.1/DTD/svg11.dtd"><svg t="1742380318814" class="icon" viewBox="0 0 1024 1024" version="1.1" xmlns="http://www.w3.org/2000/svg" p-id="7772" xmlns:xlink="http://www.w3.org/1999/xlink" width="16" height="16"><path d="M869.632 64a44.8 44.8 0 0 1 44.352 38.72l0.448 6.08-0.064 761.6h46.272V960H64.832v-89.6h54.912l0.064-450.88a44.8 44.8 0 0 1 44.8-44.8h155.328L320 292.16a44.8 44.8 0 0 1 44.8-44.8h166.4a44.8 44.8 0 0 1 44.8 44.8v82.496l82.368 0.064V108.8a44.8 44.8 0 0 1 44.8-44.8h166.4z m-44.8 400.32H209.408V870.4H334.08V557.184h389.12v313.344l101.504-0.064V464.32zM486.4 646.72H423.68v223.744L486.4 870.4v-223.744z m147.2 0H564.864l0.064 223.68h68.736v-223.68zM824.832 153.6h-76.8v221.12h76.8V153.6zM486.4 336.96H409.6v37.696h76.8v-37.76z" p-id="7773" fill="#7cba59"></path></svg>