<?xml version="1.0" standalone="no"?><!DOCTYPE svg PUBLIC "-//W3C//DTD SVG 1.1//EN" "http://www.w3.org/Graphics/SVG/1.1/DTD/svg11.dtd"><svg t="1742380557742" class="icon" viewBox="0 0 1024 1024" version="1.1" xmlns="http://www.w3.org/2000/svg" p-id="8432" xmlns:xlink="http://www.w3.org/1999/xlink" width="16" height="16"><path d="M822.72 686.976a133.312 133.312 0 0 1 9.536 266.368l-9.6 0.32h-177.728a133.312 133.312 0 0 1-9.472-266.368l9.472-0.32h177.792z m-66.688-533.312a200 200 0 0 1 5.952 400H267.2a111.104 111.104 0 1 0-4.864 222.144l4.864 0.128h22.144v-107.328l196.224 196.224H267.2a200 200 0 0 1-5.952-400h494.784a111.104 111.104 0 0 0 4.864-222.208H600.512V153.6h155.52z m66.688 622.912h-177.792a43.712 43.712 0 0 0-6.4 87.04l6.4 0.448h177.792a43.712 43.712 0 0 0 6.4-87.04l-6.4-0.448zM378.24 64.832a133.312 133.312 0 0 1 9.472 266.304l-9.472 0.32H200.512a133.312 133.312 0 0 1-9.472-266.304l9.472-0.32h177.792z m0 89.6H200.512a43.712 43.712 0 0 0-6.4 87.04l6.4 0.384h177.792a43.712 43.712 0 0 0 6.4-86.976l-6.4-0.448z" p-id="8433" fill="#7cba59"></path></svg>