<?xml version="1.0" standalone="no"?><!DOCTYPE svg PUBLIC "-//W3C//DTD SVG 1.1//EN" "http://www.w3.org/Graphics/SVG/1.1/DTD/svg11.dtd"><svg t="1742380254335" class="icon" viewBox="0 0 1024 1024" version="1.1" xmlns="http://www.w3.org/2000/svg" p-id="7552" xmlns:xlink="http://www.w3.org/1999/xlink" width="16" height="16"><path d="M937.6 685.312c11.52 13.44 23.808 44.8 23.808 70.4 0 132.224-230.592 203.456-447.68 203.456-216.96 0-447.616-71.232-447.616-203.52 0-22.848 6.912-43.904 19.456-63.104 3.136-4.736 4.736-9.408 10.368-13.888a40.576 40.576 0 0 1 49.408 2.048c14.08 11.584 18.88 26.752 14.464 45.44-4.992 13.12-10.88 16.768-7.488 34.944 3.392 18.24 28.608 40.256 89.408 64.832 71.296 28.864 171.52 43.648 272 43.648 100.544 0 199.68-14.4 269.44-43.648 58.624-24.576 90.816-51.712 90.816-67.072s-5.76-17.024-9.92-28.544c-4.096-11.52-9.152-34.944 15.04-51.648a42.304 42.304 0 0 1 58.432 6.656z m-1.984-251.008c11.52 13.44 23.808 44.8 23.808 70.336 0 132.224-230.592 203.52-447.616 203.52-217.024 0-447.616-71.296-447.616-203.52 0-22.912 6.912-43.968 19.456-63.104l4.224-7.04a26.688 26.688 0 0 1 6.08-6.848 40.576 40.576 0 0 1 49.472 1.984c14.08 11.584 18.816 26.752 14.464 45.44-5.056 13.12-10.944 16.832-7.552 35.008 3.456 18.176 28.672 40.192 89.472 64.832 71.232 28.8 171.52 43.584 272 43.584 100.48 0 199.68-14.336 269.376-43.584 58.688-24.64 90.88-51.776 90.88-67.136 0-15.36-5.76-17.024-9.92-28.544s-9.152-34.944 14.976-51.584a42.304 42.304 0 0 1 58.496 6.656zM511.616 64c217.024 0 447.616 71.232 447.616 203.52 0 132.224-230.592 203.456-447.616 203.456C294.592 470.976 64 399.744 64 267.456 64 135.232 294.592 64 511.616 64z m0 89.6c-100.48 0-200.32 16.768-271.552 45.568-60.8 24.64-86.464 50.56-86.464 68.288 0 17.728 25.6 43.648 86.464 68.288 71.232 28.864 171.008 45.632 271.552 45.632 100.48 0 200.32-16.768 271.552-45.632 60.8-24.64 86.464-50.56 86.464-68.288 0-17.728-25.6-43.648-86.4-68.288-71.296-28.8-171.072-45.568-271.616-45.568z" p-id="7553" fill="#7cba59"></path></svg>