<?xml version="1.0" standalone="no"?><!DOCTYPE svg PUBLIC "-//W3C//DTD SVG 1.1//EN" "http://www.w3.org/Graphics/SVG/1.1/DTD/svg11.dtd"><svg t="1742380526776" class="icon" viewBox="0 0 1024 1024" version="1.1" xmlns="http://www.w3.org/2000/svg" p-id="8212" xmlns:xlink="http://www.w3.org/1999/xlink" width="16" height="16"><path d="M832 544l124.736 120h-77.12v3.392c-10.624 87.36-40.64 157.056-90.752 207.36-46.272 46.528-109.056 76.032-187.264 89.152l-25.6 4.032V876.8c68.992-8.896 114.432-30.08 149.376-65.216 31.744-31.872 52.8-77.056 62.4-132.608l2.176-14.976h-82.688L832 544zM467.2 576a44.8 44.8 0 0 1 44.8 44.8v294.4a44.8 44.8 0 0 1-44.8 44.8H108.8a44.8 44.8 0 0 1-44.8-44.8V620.8a44.8 44.8 0 0 1 44.8-44.8h358.4z m-44.8 89.6H153.6v204.8h268.8v-204.8zM455.04 57.792v87.68L448 146.56V147.2l-3.968 0.128-14.4 2.816c-58.24 12.416-101.632 33.984-131.072 64-30.592 31.168-50.688 76.032-59.648 135.808l-1.344 10.048h79.168L192 480 67.264 360h80l0.64-5.376c1.6-13.952 3.712-27.52 6.336-40.576 4.544-28.8 13.312-56.32 25.6-81.728a278.4 278.4 0 0 1 54.784-80.96c32.64-33.28 74.88-58.304 126.336-75.392A329.472 329.472 0 0 1 455.04 57.792zM915.2 64a44.8 44.8 0 0 1 44.8 44.8v294.4a44.8 44.8 0 0 1-44.8 44.8H556.8a44.8 44.8 0 0 1-44.8-44.8V108.8a44.8 44.8 0 0 1 44.8-44.8h358.4z m-44.8 89.6H601.6v204.8h268.8V153.6z" p-id="8213" fill="#7cba59"></path></svg>