<?xml version="1.0" standalone="no"?><!DOCTYPE svg PUBLIC "-//W3C//DTD SVG 1.1//EN" "http://www.w3.org/Graphics/SVG/1.1/DTD/svg11.dtd"><svg t="1742418257549" class="icon" viewBox="0 0 1024 1024" version="1.1" xmlns="http://www.w3.org/2000/svg" p-id="2652" xmlns:xlink="http://www.w3.org/1999/xlink" width="64" height="64"><path d="M803.196 220.534h-0.616c-74.127-74.253-176.671-119.982-289.086-119.982-113.214 0-215.577 45.729-289.722 119.765v0.217h-0.381C149.264 294.77 103.517 397.096 103.517 510.22c0 112.633 45.747 215.068 119.874 289.395l0.381 0.309c73.764 73.945 176.507 120.271 289.722 120.271 112.415 0 214.959-46.035 289.086-120.271v-0.309c74.345-74.326 120.29-176.762 120.29-289.395 0-113.124-45.546-215.449-119.674-289.686z m-44.729 534.658v0.199c-63.239 62.859-149.47 101.455-244.973 101.455-96.302 0-182.932-38.596-245.572-101.455l-0.217-0.199c-62.441-62.549-101.11-149.289-101.11-244.973 0-96.103 38.669-182.623 101.11-244.973h0.217c62.641-63.058 149.271-101.437 245.572-101.437 95.503 0 181.733 38.378 244.973 101.437 62.241 62.35 101.327 148.871 101.327 244.973 0 95.684-39.086 182.425-101.327 244.973z" fill="#F29600" p-id="2653"></path><path d="M723.862 384.212c-2.667 5.879-6.061 11.559-10.906 16.858-8.021 7.241-17.511 12.158-27.636 14.717 15.478 28.072 24.261 60.172 24.261 94.415 0 54.582-21.885 103.686-57.505 139.199l-0.109 0.09c-35.457 35.422-84.634 57.342-138.891 57.342-54.438 0-103.488-21.92-138.836-57.342v-0.09c-35.729-35.514-57.487-84.617-57.487-139.199 0-54.131 21.757-103.016 57.487-138.855 35.348-35.276 84.397-57.451 138.836-57.451 36.873 0 71.261 10.434 100.711 28.036 2.723-9.417 7.494-18.618 14.554-25.459 5.498-5.299 11.831-9.218 18.455-12.067-38.579-25.187-84.489-39.939-133.72-39.939-67.866 0-129.309 27.346-173.876 71.822v0.381c-44.549 44.494-72.004 106.046-72.004 173.513 0 67.977 27.455 129.4 71.895 173.914h0.109v0.234c44.567 44.494 106.01 71.951 173.876 71.951 67.631 0 129.11-27.457 173.731-71.951l0.199-0.234c44.35-44.26 72.168-105.938 72.168-173.914 0.001-45.946-13.047-89.006-35.312-125.971z" fill="#F29600" p-id="2654"></path><path d="M692.832 377.971c6.024-6.642 8.583-14.263 8.583-22.247 0-16.386-13.464-29.851-30.231-29.851-7.621 0-15.642 2.94-21.666 8.783-5.645 5.462-8.782 13.845-8.782 21.068 0 17.366 13.663 30.83 30.448 30.83 7.984 0 15.605-3.14 21.648-8.583zM721.684 321.228l58.032-58.031-15.316-15.316-58.05 58.068c6.007 4.173 11.215 9.308 15.334 15.279zM533.382 509.548l102.962-102.961c-5.971-4.12-11.143-9.327-15.315-15.315l-87.646 87.664v30.612z" fill="#F29600" p-id="2655"></path><path d="M536.357 533.538c6.424-7.059 9.128-15.172 9.128-23.682 0-17.457-14.317-31.792-32.19-31.792-8.095 0-16.64 3.12-23.083 9.346-5.988 5.806-9.327 14.752-9.327 22.446 0 18.473 14.535 32.826 32.41 32.826 8.51 0.001 16.603-3.337 23.062-9.144z" fill="#F29600" p-id="2656"></path></svg>