<?xml version="1.0" standalone="no"?><!DOCTYPE svg PUBLIC "-//W3C//DTD SVG 1.1//EN" "http://www.w3.org/Graphics/SVG/1.1/DTD/svg11.dtd"><svg t="1742503210794" class="icon" viewBox="0 0 1024 1024" version="1.1" xmlns="http://www.w3.org/2000/svg" p-id="7498" xmlns:xlink="http://www.w3.org/1999/xlink" width="16" height="16"><path d="M848 359.296H627.690667L825.813333 109.013333a8.042667 8.042667 0 0 0-6.293333-12.992H435.989333a7.936 7.936 0 0 0-6.890666 4.010667L170.026667 547.477333a7.978667 7.978667 0 0 0 6.890666 12.010667h174.4l-89.386666 357.589333c-1.92 7.808 7.488 13.290667 13.290666 7.701334l578.304-551.808a7.957333 7.957333 0 0 0-5.504-13.696zM378.197333 732.501333l60.309334-241.002666h-157.397334l189.589334-327.402667h224.597333l-208.298667 263.296h210.986667l-319.786667 305.109333z" fill="#e16531" p-id="7499"></path></svg>