<?xml version="1.0" standalone="no"?><!DOCTYPE svg PUBLIC "-//W3C//DTD SVG 1.1//EN" "http://www.w3.org/Graphics/SVG/1.1/DTD/svg11.dtd"><svg t="1742503166286" class="icon" viewBox="0 0 1024 1024" version="1.1" xmlns="http://www.w3.org/2000/svg" p-id="5512" xmlns:xlink="http://www.w3.org/1999/xlink" width="16" height="16"><path d="M887.7 452.2L864 475.9c-18.7-178.4-169.6-317.5-353-317.5-131.4 0-245.8 71.6-307.2 177.6l57.3 33.1c50-86.3 143.2-144.6 249.9-144.6 145.3 0 265.5 107.9 285.6 247.8l-20-20-45.3 45.3 76.2 76.2c6.7 6.8 15.6 10.1 24.5 10.1s17.8-3.4 24.7-10.1l76.2-76.2-45.2-45.4zM511.1 802.2c-145.5 0-266-108.3-285.7-248.5l20.8 20.8 45.3-45.3-76.3-76.2c-6.6-6.6-15.3-10.2-24.6-10.2h-0.1l-15.1 0.9-85.5 85.5 45.3 45.3 23.1-23.1c19 178.2 169.7 317 352.9 317 131.4 0 245.8-71.5 307.2-177.6L761 657.6c-50 86.3-143.2 144.6-249.9 144.6z" fill="#efb336" p-id="5513"></path></svg>