<?xml version="1.0" standalone="no"?><!DOCTYPE svg PUBLIC "-//W3C//DTD SVG 1.1//EN" "http://www.w3.org/Graphics/SVG/1.1/DTD/svg11.dtd"><svg t="1742422084772" class="icon" viewBox="0 0 1243 1024" version="1.1" xmlns="http://www.w3.org/2000/svg" p-id="3832" xmlns:xlink="http://www.w3.org/1999/xlink" width="77.6875" height="64"><path d="M806.509714 417.389714a36.864 36.864 0 0 0-36.717714 36.973715 36.864 36.864 0 0 0 37.12 36.644571 36.864 36.864 0 0 0 36.717714-36.827429 37.083429 37.083429 0 0 0-37.12-36.790857z m370.249143 147.602286h-74.057143a36.498286 36.498286 0 0 0-2.194285-13.165714L952.466286 164.205714a36.937143 36.937143 0 0 0-34.742857-23.625143h-148.114286c-8.996571 0-17.700571 3.291429-24.466286 9.252572l-44.251428 39.350857-123.977143-163.181714a37.193143 37.193143 0 0 0-39.497143-12.982857L241.188571 99.072a37.046857 37.046857 0 0 0-26.441142 29.147429L140.690286 558.701714a42.971429 42.971429 0 0 0 0 6.290286H66.267429a37.046857 37.046857 0 1 0 0 73.801143h59.245714L214.308571 835.657143c0 13.604571 16.603429 24.612571 37.12 24.612571h6.729143c-4.388571 11.849143-6.656 24.393143-6.729143 37.010286a110.884571 110.884571 0 0 0 111.067429 110.738286 110.884571 110.884571 0 0 0 111.067429-110.738286 108.946286 108.946286 0 0 0-6.692572-37.010286h309.613714a108.763429 108.763429 0 0 0-6.948571 37.010286 110.957714 110.957714 0 0 0 106.422857 115.382857 111.030857 111.030857 0 0 0 115.748572-115.382857 108.946286 108.946286 0 0 0-6.729143-37.010286h6.729143c19.748571 0 37.12-11.008 37.12-24.612571l88.868571-196.827429h59.245714a37.046857 37.046857 0 1 0 0-73.801143h-0.219428zM283.867429 163.474286l249.563428-72.630857 132.681143 173.604571c6.253714 8.155429 15.616 13.385143 25.892571 14.372571 10.24 0.731429 20.333714-2.486857 28.233143-9.033142l63.195429-55.332572h108.617143l134.034285 350.390857H214.747429l69.12-401.371428z m78.994285 770.669714c-20.516571 0-37.156571-16.566857-37.156571-37.010286 0-20.48 16.64-37.010286 37.12-37.010285 20.48 0 37.12 16.566857 37.12 37.010285 0 20.443429-16.603429 37.010286-37.12 37.010286z m518.290286 0a37.083429 37.083429 0 0 1-37.705143-36.425143 37.046857 37.046857 0 0 1 36.534857-37.595428 37.083429 37.083429 0 0 1 37.705143 37.010285c0 20.443429-16.603429 37.010286-37.12 37.010286h0.585143z m89.051429-147.638857H273.188571l-66.340571-147.638857h829.330286l-65.974857 147.638857zM499.675429 317.586286a37.010286 37.010286 0 0 0-52.297143 0l-74.276572 73.984a36.937143 36.937143 0 0 0-2.889143 52.297143 37.193143 37.193143 0 0 0 55.222858 0.073142l47.762285-47.616 47.798857 47.616a37.302857 37.302857 0 0 0 52.626286 0.109715c14.555429-14.445714 14.628571-37.961143 0.109714-52.48l-74.057142-73.984z" fill="#ffffff" p-id="3833"></path></svg>