<?xml version="1.0" standalone="no"?><!DOCTYPE svg PUBLIC "-//W3C//DTD SVG 1.1//EN" "http://www.w3.org/Graphics/SVG/1.1/DTD/svg11.dtd"><svg t="1742417902502" class="icon" viewBox="0 0 1024 1024" version="1.1" xmlns="http://www.w3.org/2000/svg" p-id="4924" width="64" height="64" xmlns:xlink="http://www.w3.org/1999/xlink"><path d="M869 119.3H156.8c-36.4 0-66 29.6-66 66v657.9c0 36.4 29.6 66 66 66H869c36.4 0 66-29.6 66-66V185.3c0-36.4-29.6-66-66-66z m-4 70v176.6H160.8V189.3H865z m0 246.6V602H160.8V435.9H865zM160.8 839.2V672H865v167.2H160.8z" p-id="4925" fill="#7cba59"></path><path d="M723.5 317.8h43c19.3 0 35-15.7 35-35s-15.7-35-35-35h-43c-19.3 0-35 15.7-35 35s15.7 35 35 35zM723.5 553.9h43c19.3 0 35-15.7 35-35s-15.7-35-35-35h-43c-19.3 0-35 15.7-35 35 0 19.4 15.7 35 35 35zM766.5 720.1h-43c-19.3 0-35 15.7-35 35s15.7 35 35 35h43c19.3 0 35-15.7 35-35 0-19.4-15.7-35-35-35z" p-id="4926" fill="#7cba59"></path></svg>