<?xml version="1.0" standalone="no"?><!DOCTYPE svg PUBLIC "-//W3C//DTD SVG 1.1//EN" "http://www.w3.org/Graphics/SVG/1.1/DTD/svg11.dtd"><svg t="1742380974440" class="icon" viewBox="0 0 1024 1024" version="1.1" xmlns="http://www.w3.org/2000/svg" p-id="9262" xmlns:xlink="http://www.w3.org/1999/xlink" width="16" height="16"><path d="M720 527.808a43.328 43.328 0 0 0 43.648-43.072 43.328 43.328 0 0 0-43.648-43.072H601.6a43.328 43.328 0 0 0-43.584 43.072c0 23.808 19.52 43.072 43.648 43.072h118.4z m10.752-367.04v-62.528c0-18.88-18.752-34.24-41.92-34.24-23.168 0-41.92 15.36-41.92 34.24v62.528H373.888v-60.16c0-18.944-18.752-34.24-41.92-34.24-23.168 0-41.92 15.36-41.92 34.24v60.16H96a32 32 0 0 0-32 32V928a32 32 0 0 0 32 32h832a32 32 0 0 0 32-32V192.768a32 32 0 0 0-32-32h-197.248zM155.776 869.056V251.712h134.272v45.312c0 18.88 18.752 34.24 41.92 34.24 23.168 0 41.92-15.36 41.92-34.24v-45.312h273.024v42.88c0 19.008 18.752 34.304 41.92 34.304 23.168 0 41.92-15.36 41.92-34.24v-42.88h137.472v617.28H155.776z m565.248-256.704H304a43.328 43.328 0 0 0-43.648 43.008c0 23.808 19.52 43.072 43.648 43.072h417.024a43.328 43.328 0 0 0 43.648-43.072 43.328 43.328 0 0 0-43.648-43.008z" p-id="9263" fill="#7cba59"></path></svg>