<?xml version="1.0" standalone="no"?><!DOCTYPE svg PUBLIC "-//W3C//DTD SVG 1.1//EN" "http://www.w3.org/Graphics/SVG/1.1/DTD/svg11.dtd"><svg t="1742380780958" class="icon" viewBox="0 0 1121 1024" version="1.1" xmlns="http://www.w3.org/2000/svg" p-id="4809" xmlns:xlink="http://www.w3.org/1999/xlink" width="17.515625" height="16"><path d="M568.54471554 208.63540358c-20.42314258 0-39.69873578 3.15576272-57.72934553 9.48352683-18.10097774 6.31693809-33.56042581 14.39850535-46.38916877 24.21763642-12.88287303 9.8353697-24.80765012 21.63023536-35.82846059 35.43331366-11.00457182 13.77601363-19.92514961 27.15687962-26.81586277 40.14801278a360.08712858 360.08712858 0 0 0-18.62062342 41.6257537c-5.55912229 14.76658762-9.6188509 26.91329616-12.27120733 36.48343035a356.98549591 356.98549591 0 0 0-6.59841296 28.05002022c-22.54502798 113.22854625-47.40139479 198.75891443-74.5582744 256.50449861h557.69849293c-27.14064096-57.74558419-51.98618175-143.2759531-74.56368776-256.50449861a353.30467484 353.30467484 0 0 0-6.58758624-28.04460757c-2.63070438-9.55389555-6.73373705-21.7222561-12.29285935-36.488843a360.47686285 360.47686285 0 0 0-18.60979743-41.6257537c-6.8582351-12.96406777-15.80046493-26.37199914-26.82668876-40.14801278-11.00998446-13.82473031-22.95100091-25.62500862-35.78515727-35.43331366-12.88287303-9.79747902-28.33149509-17.90069831-46.38916877-24.21763642-18.09015172-6.3277641-37.31702825-9.48352684-57.7564102-9.48352683h-0.07578137z m0 539.34851909c-9.33737675 0-17.29985787 3.29108679-23.92533552 9.90573843-6.60382562 6.56052157-9.91656443 14.51217741-9.91656516 23.82790212 0 9.31031136 3.31273882 17.25114118 9.91115179 23.82790215 6.63089028 6.61465162 14.59337214 9.89491241 23.93074889 9.89491241s17.28903187-3.28026079 23.9307489-9.89491241c6.60382562-6.57676094 9.91656443-14.52300343 9.91656444-23.82790215 0-9.31031136-3.31815146-17.26738058-9.91656444-23.8333155-6.64171629-6.60382562-14.59337214-9.90032578-23.92533625-9.90032505zM568.54471554 141.21142578c29.0893109 0 56.56555609 4.68763372 82.46662693 14.08996583 25.87941883 9.38609346 48.87913644 22.32850918 68.98291345 38.81100855 20.12001641 16.49873803 38.15603879 36.12076147 54.15678388 58.86606887a362.84774439 362.84774439 0 0 1 40.05057866 73.75174192c10.67979361 26.44236787 18.99953098 54.48697471 24.97545221 84.144648 17.78702555 89.00008383 36.66747186 159.3687182 56.68464149 211.07342579 19.98469232 51.69929422 46.19430201 93.72019558 78.62882976 126.01398589H664.18110302a100.59466933 100.59466933 0 0 1 5.82977044 33.70116254c0 27.92552215-9.91115179 51.72635963-29.73886731 71.50535916-19.81147685 19.75734751-43.7368131 29.61978188-71.74894262 29.61978189-28.02295554 0-51.93205241-9.86784774-71.75976793-29.61978189-19.82771625-19.77899955-29.73886729-43.579837-29.73886802-71.50535916 0-11.4051321 1.93784393-22.64246137 5.82977116-33.70116252H162.54475911c32.43452777-32.29379033 58.65496345-74.31469094 78.62882975-126.01398591C261.19075851 570.24357715 280.0712048 499.89659481 297.86905636 410.87485895c5.98674725-29.65767329 14.32272329-57.70228014 24.96462621-84.14464801 10.66355497-26.44236787 23.99029161-51.00643378 40.05057939-73.75174191 16.01157109-22.74530814 34.09089682-42.36733086 54.15678314-58.86065624 20.08212572-16.48791202 43.08184332-29.43032847 68.99374019-38.81100854C511.9412688 145.89364614 539.42833998 141.21142578 568.49058549 141.21142578h0.05413005z" p-id="4810" fill="#7cba59"></path></svg>