<?xml version="1.0" standalone="no"?><!DOCTYPE svg PUBLIC "-//W3C//DTD SVG 1.1//EN" "http://www.w3.org/Graphics/SVG/1.1/DTD/svg11.dtd"><svg t="1742380582021" class="icon" viewBox="0 0 1024 1024" version="1.1" xmlns="http://www.w3.org/2000/svg" p-id="8652" xmlns:xlink="http://www.w3.org/1999/xlink" width="16" height="16"><path d="M845.184 610.752c11.904 0 22.912 6.4 28.864 16.64l83.328 144.384a33.28 33.28 0 0 1 0 33.28l-83.328 144.384a33.28 33.28 0 0 1-28.864 16.64h-166.656a33.28 33.28 0 0 1-28.864-16.64L566.336 805.12a33.28 33.28 0 0 1 0-33.344l83.328-144.32a33.28 33.28 0 0 1 28.8-16.64h166.72z m-35.072-545.92a32 32 0 0 1 32 32V464a44.8 44.8 0 0 1-89.216 6.08l-0.384-6.08-0.064-309.632H153.856v716.48H429.44a44.8 44.8 0 0 1 44.416 38.784l0.384 6.08a44.8 44.8 0 0 1-38.72 44.352l-6.08 0.448H96.256a32 32 0 0 1-32-32V96.768a32 32 0 0 1 32-32h713.856z m2.496 635.52H711.04l-50.88 88.064 50.816 88.064h101.696l50.816-88.064-50.88-88.064z m-50.816 40.064a44.8 44.8 0 1 1 0 89.6 44.8 44.8 0 0 1 0-89.6zM408.832 562.048a44.8 44.8 0 0 1 6.08 89.152l-6.08 0.448H289.408a44.8 44.8 0 0 1-6.08-89.216l6.08-0.384h119.424z m207.552-240.64a44.8 44.8 0 0 1 6.08 89.152l-6.08 0.448h-327.04a44.8 44.8 0 0 1-6.016-89.216l6.08-0.384h327.04z" p-id="8653" fill="#7cba59"></path></svg>