<?xml version="1.0" standalone="no"?><!DOCTYPE svg PUBLIC "-//W3C//DTD SVG 1.1//EN" "http://www.w3.org/Graphics/SVG/1.1/DTD/svg11.dtd"><svg t="1742381022968" class="icon" viewBox="0 0 1024 1024" version="1.1" xmlns="http://www.w3.org/2000/svg" p-id="6229" xmlns:xlink="http://www.w3.org/1999/xlink" width="16" height="16"><path d="M432.225524 141.531429a72.484571 72.484571 0 0 1-46.787048 1.706666l-127.536762 124.416c14.921143 20.406857 9.581714 46.592-12.653714 62.025143-22.235429 15.408762-54.905905 15.555048-77.360762 0.341333-22.454857-15.189333-28.16-41.325714-13.531428-61.903238 14.652952-20.553143 45.397333-29.525333 72.801523-21.284571l127.561143-124.391619c-14.628571-19.992381-9.825524-45.592381 11.459048-61.17181 21.284571-15.555048 53.126095-16.725333 76.068571-2.803809 22.918095 13.921524 30.549333 39.082667 18.212572 60.074666l160.036571 130.048a72.411429 72.411429 0 0 1 49.371429-0.902095l143.603809-127.268571c-13.726476-20.967619-6.851048-46.908952 16.262095-61.44 23.113143-14.555429 55.759238-13.433905 77.287619 2.608762 21.552762 16.067048 25.721905 42.398476 9.898667 62.366476-15.847619 19.968-47.055238 27.769905-73.971809 18.456381l-143.60381 127.268571c13.287619 20.260571 7.338667 45.348571-14.262857 60.14781-21.601524 14.823619-53.00419 15.36-75.385905 1.340952-22.381714-14.043429-29.671619-38.887619-17.481143-59.611428l-160.036571-130.048 0.048762 0.024381zM979.18781 959.24419H61.586286c-20.675048 0-37.205333-19.090286-37.205334-42.983619 0-23.868952 16.530286-42.959238 37.205334-42.959238h921.746285c20.675048 0 37.205333 19.090286 37.205334 42.959238-4.144762 23.893333-20.675048 42.983619-41.350095 42.983619z" fill="#7cba59" p-id="6230"></path><path d="M471.771429 292.571429h-121.904762v512h121.904762V292.571429z m-211.69981 207.238095H121.904762V804.571429h138.166857V499.809524z m448.999619-101.595429h-138.142476V804.571429h138.142476V398.214095zM950.857143 601.404952h-138.166857V804.571429H950.857143v-203.166477z" fill="#7cba59" p-id="6231"></path></svg>