<?xml version="1.0" standalone="no"?><!DOCTYPE svg PUBLIC "-//W3C//DTD SVG 1.1//EN" "http://www.w3.org/Graphics/SVG/1.1/DTD/svg11.dtd"><svg t="1742379979801" class="icon" viewBox="0 0 1024 1024" version="1.1" xmlns="http://www.w3.org/2000/svg" p-id="7012" xmlns:xlink="http://www.w3.org/1999/xlink" width="16" height="16"><path d="M456.192 222.4h502.528v89.6H456.192v-89.6zM368.384 96a38.4 38.4 0 0 1 38.4 38.4v259.072a38.4 38.4 0 0 1-38.4 38.4h-266.88a38.4 38.4 0 0 1-38.4-38.4V134.4a38.4 38.4 0 0 1 38.4-38.4h266.88z m-51.2 89.6h-164.48v156.608h164.48V185.6z m248.512 529.6H63.104v89.6H565.76v-89.6zM653.44 588.8a38.4 38.4 0 0 0-38.4 38.4v259.072a38.4 38.4 0 0 0 38.4 38.4h266.88a38.4 38.4 0 0 0 38.4-38.4V627.2a38.4 38.4 0 0 0-38.4-38.4h-266.88z m51.2 89.6h164.48v156.608h-164.48V678.4z" p-id="7013" fill="#7cba59"></path></svg>