<?xml version="1.0" standalone="no"?><!DOCTYPE svg PUBLIC "-//W3C//DTD SVG 1.1//EN" "http://www.w3.org/Graphics/SVG/1.1/DTD/svg11.dtd"><svg t="1742379921630" class="icon" viewBox="0 0 1024 1024" version="1.1" xmlns="http://www.w3.org/2000/svg" p-id="6742" width="16" height="16" xmlns:xlink="http://www.w3.org/1999/xlink"><path d="M529.6 89.984l418.944 275.328a44.8 44.8 0 0 1-43.392 78.08l-5.76-3.2-0.64-0.448v460.672a32 32 0 0 1-32 32H146.88a32 32 0 0 1-32-32V444.032A44.8 44.8 0 0 1 64 432.512l-4.032-5.248a44.8 44.8 0 0 1 7.68-57.984l5.312-4.032 421.632-275.328a32 32 0 0 1 35.072 0.064zM511.872 185.6L204.416 386.304v456.512h604.736V380.864L511.872 185.6z m159.488 419.264a41.6 41.6 0 0 1 1.024 83.2l-328.384 3.968a41.6 41.6 0 0 1-1.024-83.2l328.384-3.968z" p-id="6743" fill="#7cba59"></path></svg>