<?xml version="1.0" standalone="no"?><!DOCTYPE svg PUBLIC "-//W3C//DTD SVG 1.1//EN" "http://www.w3.org/Graphics/SVG/1.1/DTD/svg11.dtd"><svg t="1742380936848" class="icon" viewBox="0 0 1024 1024" version="1.1" xmlns="http://www.w3.org/2000/svg" p-id="9042" xmlns:xlink="http://www.w3.org/1999/xlink" width="16" height="16"><path d="M493.44 40.256a467.712 467.712 0 0 1 345.792 131.2 469.632 469.632 0 0 1 144.96 340.224 469.12 469.12 0 0 1-138.624 333.888l13.248-13.952 0.064 32.832c0 58.88-43.584 108.544-99.968 118.08l-9.472 1.216-10.24 0.448H511.616a467.456 467.456 0 0 1-340.352-145.152A469.12 469.12 0 0 1 40.256 493.568C49.856 248.128 248.128 49.856 493.44 40.256z m22.016 90.624l-18.368 0.32c-197.952 7.68-358.144 167.936-365.888 366.016a378.176 378.176 0 0 0 105.984 278.976 376.448 376.448 0 0 0 274.56 116.992h227.392c15.36 0 28.736-13.44 28.736-28.736v-69.952l13.312-13.312a378.112 378.112 0 0 0 112-269.44 378.624 378.624 0 0 0-117.184-274.752A376.768 376.768 0 0 0 497.088 131.2zM263.104 448.192a51.2 51.2 0 1 1 51.2 88.704 51.2 51.2 0 0 1-51.2-88.704z m227.584 0a51.2 51.2 0 1 1 51.2 88.704 51.2 51.2 0 0 1-51.2-88.704z m227.52 0a51.2 51.2 0 1 1 51.2 88.704 51.2 51.2 0 0 1-51.2-88.704z" p-id="9043" fill="#7cba59"></path></svg>