<?xml version="1.0" standalone="no"?><!DOCTYPE svg PUBLIC "-//W3C//DTD SVG 1.1//EN" "http://www.w3.org/Graphics/SVG/1.1/DTD/svg11.dtd"><svg t="1742906610276" class="icon" viewBox="0 0 1024 1024" version="1.1" xmlns="http://www.w3.org/2000/svg" p-id="1474" xmlns:xlink="http://www.w3.org/1999/xlink" width="32" height="32"><path d="M500.736 75.662222a39.822222 39.822222 0 0 1 22.869333 0L864.711111 177.664a39.822222 39.822222 0 0 1 28.387556 38.115556v209.351111c0 236.999111-148.195556 447.601778-368.241778 522.695111a39.822222 39.822222 0 0 1-25.713778 0C279.04 872.789333 130.844444 662.186667 130.844444 425.130667V215.893333a39.822222 39.822222 0 0 1 28.444445-38.172444l341.447111-102.115556z m11.377778 79.644445L210.488889 245.475556v179.655111c0 197.859556 120.206222 373.873778 299.747555 442.083555l1.763556 0.682667 1.877333-0.682667c174.648889-66.332444 293.091556-234.723556 299.349334-425.984l0.284444-15.985778V245.532444L512.113778 155.306667z" p-id="1475" fill="#ffffff"></path><path d="M511.032889 306.062222a39.822222 39.822222 0 0 1 39.822222 39.822222v310.840889a39.822222 39.822222 0 1 1-79.644444 0V345.884444a39.822222 39.822222 0 0 1 39.822222-39.822222z" p-id="1476" fill="#ffffff"></path><path d="M662.755556 461.482667a39.822222 39.822222 0 1 1 0 79.644444H359.367111a39.822222 39.822222 0 1 1 0-79.644444h303.388445z" p-id="1477" fill="#ffffff"></path></svg>