<?xml version="1.0" standalone="no"?><!DOCTYPE svg PUBLIC "-//W3C//DTD SVG 1.1//EN" "http://www.w3.org/Graphics/SVG/1.1/DTD/svg11.dtd"><svg t="1742906586826" class="icon" viewBox="0 0 1024 1024" version="1.1" xmlns="http://www.w3.org/2000/svg" p-id="1245" xmlns:xlink="http://www.w3.org/1999/xlink" width="32" height="32"><path d="M810.666667 73.955556c44.942222 0 82.488889 35.043556 82.488889 79.644444v716.8c0 44.600889-37.546667 79.644444-82.488889 79.644444H213.333333c-44.942222 0-82.488889-35.043556-82.488889-79.644444V153.6c0-44.600889 37.546667-79.644444 82.488889-79.644444h597.333334z m0 79.644444H213.333333c-2.161778 0-2.844444 0.625778-2.844444 0v716.8c0-0.625778 0.682667 0 2.844444 0h597.333334c2.161778 0 2.844444-0.625778 2.844444 0V153.6c0 0.625778-0.682667 0-2.844444 0z" p-id="1246" fill="#ffffff"></path><path d="M640 591.644444a39.822222 39.822222 0 0 1 0 79.644445H341.333333a39.822222 39.822222 0 0 1 0-79.644445h298.666667zM490.666667 711.111111a39.822222 39.822222 0 0 1 0 79.644445H341.333333a39.822222 39.822222 0 0 1 0-79.644445h149.333334zM640 233.244444a39.822222 39.822222 0 0 1 39.822222 39.822223v199.111111a39.822222 39.822222 0 0 1-39.822222 39.822222H341.333333a39.822222 39.822222 0 0 1-39.822222-39.822222V273.066667a39.822222 39.822222 0 0 1 39.822222-39.822223h298.666667z m-39.822222 79.644445H381.155556v119.466667h219.022222V312.888889z" p-id="1247" fill="#ffffff"></path></svg>