<svg viewBox="0 0 1024 1024" height="1024" width="1024" version="1.1" fill="none" xmlns:xlink="http://www.w3.org/1999/xlink" xmlns="http://www.w3.org/2000/svg"><defs><clipPath id="master_svg0_49_3294"><rect rx="0" height="1024" width="1024" y="0" x="0"></rect></clipPath></defs><g clip-path="url(#master_svg0_49_3294)"><g><g><path style="mix-blend-mode:passthrough" fill-opacity="1" fill="#EBF2FF" d="M256.4570758056641,653.7031406738281C241.93457580566405,673.4104406738281,195.10057580566405,679.7313406738281,166.81027580566405,663.2914406738281C145.69721580566406,651.1710406738281,144.46842580566405,630.7375406738281,166.62407580566406,617.8631306738281C188.61207580566406,605.2586406738282,223.26057580566408,605.4541306738281,244.91347580566406,617.8631306738281C261.67007580566406,627.5445406738281,265.5800758056641,641.9736406738281,256.4570758056641,653.7031406738281Z"></path></g><g><path style="mix-blend-mode:passthrough" fill-opacity="1" fill="#DBE6FA" d="M256.45637268066406,653.7032031738281C253.84967268066407,657.2406031738282,250.03287268066407,660.4988031738282,245.19217268066404,663.2915031738281C217.71177268066407,679.2008031738281,171.07317268066407,674.2390031738281,155.26637268066406,653.5170031738281C173.69837268066405,629.1551231738281,235.92037268066406,627.5074131738281,256.45637268066406,653.7032031738281Z"></path></g><g><path style="mix-blend-mode:passthrough" fill-opacity="1" fill="#39C988" d="M895.990286743164,745.9375341113281L895.879286743164,775.3170141113281C895.748286743164,822.2163141113281,864.935286743164,869.0407141113282,803.365286743164,904.8247141113281C679.4052867431641,976.8587141113281,477.7422867431641,976.8307141113281,352.97268674316405,904.7967141113281C290.1921867431641,868.5387141113281,258.82984874316406,820.9688141113281,258.9788055421641,773.4552141113281L259.0811917431641,744.0757141113281C258.9508514431641,791.5893141113281,290.30388674316407,839.1680141113281,353.0936867431641,875.4177141113281C477.86328674316405,947.4517141113281,679.5262867431641,947.4697141113281,803.4862867431641,875.4457141113281C865.047286743164,839.6615141113282,895.869286743164,792.8367141113281,896.0002867431641,745.9375941113282L895.990286743164,745.9375341113281Z"></path></g><g><path style="mix-blend-mode:passthrough" fill-opacity="1" fill="#28AF6E" d="M539.0894976806641,927.9857141113281C471.1704976806641,923.0897141113281,405.36449768066404,905.6067141113281,353.0848976806641,875.4177141113281C290.29499768066404,839.1681141113281,258.94203188066405,791.5893141113281,259.07234168066407,744.0757141113281L258.96995544466404,773.4552141113281C258.8303066806641,820.9688141113281,290.19259768066405,868.5477141113281,352.97319768066404,904.7967141113281C405.2904976806641,934.9957141113281,471.13349768066405,952.4877141113282,539.080497680664,957.3747141113281L539.080497680664,927.9857141113281L539.0894976806641,927.9857141113281Z"></path></g><g><path style="mix-blend-mode:passthrough" fill-opacity="1" fill="#49E4A3" d="M801.959896118164,614.5580453613281C926.7298961181641,686.5917453613281,927.4278961181641,803.4027453613281,803.477896118164,875.4457453613281C679.5268961181641,947.4887453613281,477.8458961181641,947.4507453613281,353.0850961181641,875.4177453613281C228.32469611816407,803.3837453613281,227.65439611816407,686.5917453613281,351.6142961181641,614.5580453613281C475.57389611816404,542.5243453613281,677.1908961181641,542.5242453613281,801.959896118164,614.5580453613281Z"></path></g><g><path style="mix-blend-mode:passthrough" fill-opacity="1" fill="#FFFFFF" d="M363.50200549316406,857.3484562988281C252.35150549316407,793.1814562988282,252.25840549316405,696.4224562988281,362.0963054931641,632.5899562988282C479.698505493164,564.2426562988281,673.113505493164,564.2519562988281,791.524505493164,632.6179562988282C845.3875054931641,663.7102562988281,875.073505493164,703.8044562988281,875.1295054931641,745.5094562988281C875.1945054931641,786.8414562988281,846.029505493164,826.5914562988281,793.0045054931641,857.4044562988281C675.4035054931641,925.7334562988281,481.9415054931641,925.7334562988281,363.50200549316406,857.3484562988281ZM364.43290549316407,636.6114562988281C257.2759054931641,698.8894562988281,258.24410549316406,791.1984562988281,365.82930549316404,853.3274562988281C482.6765054931641,920.7904562988281,674.3885054931641,920.9484562988282,790.6585054931641,853.3834562988282C897.760505493164,791.1424562988282,896.8295054931641,698.7864562988282,789.2065054931641,636.6487562988282C672.3595054931641,569.1856562988281,480.7035054931641,569.0367562988281,364.43290549316407,636.6114562988281Z"></path></g><g><path style="mix-blend-mode:passthrough" fill-opacity="1" fill="#39C988" d="M843.6269898681641,700.8905380175781L843.5339898681641,725.4386680175782C843.431989868164,764.6298680175781,817.682989868164,803.7559680175781,766.2319898681641,833.6569680175782C662.6489898681641,893.8489680175782,494.1359898681641,893.8309680175781,389.8836898681641,833.6379680175781C337.4176898681641,803.3459680175781,311.2218778681641,763.5872680175781,311.32429504416405,723.8840680175781L311.4173736681641,699.3359680175781C311.3056793681641,739.0391680175782,337.51078986816407,778.7983680175781,389.9674898681641,809.0899680175781C494.22898986816404,869.2729680175781,662.742989868164,869.3009680175782,766.324989868164,809.1089680175781C817.766989868164,779.2078680175781,843.5159898681641,740.0817680175782,843.6269898681641,700.8905380175781Z"></path></g><g><path style="mix-blend-mode:passthrough" fill-opacity="1" fill="#28AF6E" d="M539.7229898681641,852.4329680175781C485.00398986816407,847.7969680175781,432.2029898681641,833.4609680175781,389.96758986816405,809.0809680175781C337.51078986816407,778.7890680175781,311.30570986816406,739.0391680175782,311.41743466816405,699.3359680175781L311.3243560791641,723.8933680175782C311.21266186816405,763.5872680175781,337.41778986816405,803.3459680175781,389.88378986816406,833.6379680175781C432.12798986816404,858.0279680175781,484.9669898681641,872.3639680175781,539.7229898681641,876.9909680175781L539.7229898681641,852.4329680175781Z"></path></g><g><path style="mix-blend-mode:passthrough" fill-opacity="1" fill="#49E4A3" d="M765.0588101806641,591.1087859863281C869.320810180664,651.3013859863281,869.906810180664,748.9073859863281,766.3248101806641,809.1093859863281C662.742810180664,869.3113859863281,494.21981018066407,869.2733859863281,389.9675101806641,809.0813859863281C285.7057101806641,748.8883859863281,285.16571018066406,651.3013859863281,388.7480101806641,591.1087859863281C492.329810180664,530.9161859863282,660.7968101806641,530.9161859863282,765.0588101806641,591.1087859863281Z"></path></g><g><path style="mix-blend-mode:passthrough" fill-opacity="1" fill="#FFFFFF" d="M400.40260393066404,799.4744055175781C309.8531039306641,747.2034055175782,309.7041039306641,669.6123055175781,399.22030393066404,617.5931055175781C496.43490393066406,561.1056055175782,656.7469039306641,561.1148055175781,754.6319039306641,617.6211055175781C798.5249039306641,642.9697055175782,822.718903930664,675.4114055175781,822.7749039306641,708.9894055175781C822.8209039306641,742.2604055175782,799.0549039306641,774.4144055175782,755.8419039306641,799.5304055175782C658.6549039306641,856.0084055175781,498.31590393066404,856.0174055175781,400.40260393066404,799.4744055175781ZM401.5662039306641,621.6240055175781C314.71240393066404,672.0792055175781,315.76440393066406,745.2484055175781,402.7299039306641,795.4434055175782C499.0329039306641,851.0554055175782,657.6129039306641,851.2324055175782,753.4969039306641,795.5084055175781C840.3319039306641,745.0444055175781,839.2709039306641,671.8838055175781,752.3049039306641,621.6519055175781C655.815903930664,565.9463155175781,497.253903930664,566.0022255175782,401.5662039306641,621.6240055175781Z"></path></g><g><path style="mix-blend-mode:passthrough" fill-opacity="1" fill="#39C988" d="M695.4919586181641,631.5285727050781C761.0829586181641,669.4072727050782,761.455958618164,730.8097727050781,696.291958618164,768.6697727050781C631.128958618164,806.5397727050781,525.1259586181641,806.5297727050781,459.5339586181641,768.6607727050781C393.94215861816406,730.7917727050781,393.60705861816405,669.4071727050781,458.7613586181641,631.5377727050782C523.915958618164,593.6684227050781,629.9089586181641,593.6684227050781,695.4919586181641,631.5377727050782L695.4919586181641,631.5285727050781Z"></path></g><g><path style="mix-blend-mode:passthrough" fill-opacity="1" fill="#28AF6E" d="M654.997802368164,655.0713820800781C698.0708023681641,679.9359820800781,698.3218023681641,720.2722820800782,655.5288023681641,745.1368820800781C612.7348023681641,770.0008820800781,543.1117023681641,769.9918820800781,500.03860236816405,745.1278820800782C456.96540236816406,720.2628820800782,456.73270236816404,679.9451820800781,499.52660236816405,655.0712820800782C542.3205023681641,630.2067520800781,611.924802368164,630.2067520800781,654.997802368164,655.0713820800781Z"></path></g><g><path style="mix-blend-mode:passthrough" fill-opacity="1" fill="#4F575F" d="M624.3981617431641,662.9001648925781C650.4551617431641,677.9436648925781,650.594161743164,702.3334648925781,624.724161743164,717.3583648925782C598.8265617431641,732.4204648925781,556.7121617431641,732.4204648925781,530.6560617431641,717.3769648925781C504.5999017431641,702.3334648925781,504.46028174316405,677.9436648925781,530.3674617431641,662.8908648925782C556.228161743164,647.8567248925781,598.351761743164,647.8567248925781,624.3981617431641,662.8908648925782L624.3981617431641,662.9001648925781Z"></path></g><g><path style="mix-blend-mode:passthrough" fill-opacity="1" fill="#DBDFE6" d="M683.6595601806641,638.9947202988282L677.5345601806641,658.5531562988281C673.9785601806641,669.8916562988281,664.6695601806641,680.7273562988281,649.5885601806641,689.4872562988281C609.9505601806641,712.5271562988281,545.513160180664,712.5365562988281,505.6144601806641,689.4965562988282C490.18926018066406,680.5877562988281,480.6939801806641,669.5378562988282,477.14723018066405,657.9945562988281C477.14723018066405,657.6874562988281,476.9424301806641,657.3150562988282,476.8493501806641,657.0171562988281L471.13356018066406,638.3989562988281C474.89442018066404,650.6404562988281,484.9575601806641,662.3698562988282,501.33226018066404,671.8185562988281C543.6420601806641,696.2456562988282,611.980560180664,696.2362562988282,654.019560180664,671.8092562988281C670.0125601806641,662.5094562988281,679.899560180664,651.0220562988281,683.6595601806641,638.9947202988282Z"></path></g><g><path style="mix-blend-mode:passthrough" fill-opacity="1" fill="#CCD0D9" d="M677.5529664306641,597.2431338300781L683.6319664306641,616.4571008300782C689.7849664306641,635.9317008300782,679.916966430664,656.7562008300781,654.018966430664,671.8090008300782C611.979966430664,696.2361008300782,543.6414664306641,696.2453008300781,501.3316664306641,671.8090008300782C474.98689643066405,656.6073008300781,464.95170643066405,635.5035008300781,471.2911864306641,615.8614008300781L477.4724264306641,596.6846008300781C471.5052964306641,615.2097008300781,480.95406643066406,635.0846008300781,505.77206643066404,649.4113008300782C545.642966430664,672.4326008300782,610.042966430664,672.4326008300782,649.652966430664,649.4113008300782C674.061966430664,635.2242008300781,683.3519664306641,615.6007008300782,677.5529664306641,597.2431338300781Z"></path></g><g><path style="mix-blend-mode:passthrough" fill-opacity="1" fill="#DBDFE6" d="M683.7532086181641,598.2579042363282L677.6742086181641,618.1980172363282C674.193208618164,629.6295172363282,664.856208618164,640.5770172363282,649.654208618164,649.4113172363282C610.044208618164,672.4327172363281,545.6435086181641,672.4327172363281,505.7727086181641,649.4113172363282C490.2265086181641,640.4374172363281,480.7033186181641,629.2850172363281,477.2310286181641,617.6394172363281L471.27320861816406,597.6714172363281C474.95960861816405,610.0059172363282,485.05070861816404,621.8285172363281,501.52770861816407,631.3517172363281C543.791008618164,655.7508172363281,612.054208618164,655.7415172363281,654.048208618164,631.3424172363282C670.1522086181641,621.9774172363282,680.057208618164,610.3783172363281,683.7442086181641,598.2578432363281L683.7532086181641,598.2579042363282Z"></path></g><g><path style="mix-blend-mode:passthrough" fill-opacity="1" fill="#CCD0D9" d="M677.5522711181641,557.4936221113281L683.203271118164,574.7712891113281C691.0512711181641,598.7886891113282,675.9792711181641,618.5984891113281,654.0472711181641,631.3425891113282C612.054271118164,655.7510891113282,543.799771118164,655.7510891113282,501.52717111816406,631.3425891113282C475.05208111816404,616.0663891113281,465.07274111816406,594.8230891113282,471.64497111816405,575.0877891113281L477.69588111816404,556.9350891113281C471.49602111816404,575.5532891113281,480.90747111816404,595.5956891113282,505.8837711181641,610.0154891113282C545.7546711181641,633.0368891113282,610.155271118164,633.0182891113282,649.774271118164,610.0061891113281C674.3412711181641,595.7353891113281,683.5942711181641,575.9442891113281,677.5622711181641,557.4936221113281L677.5522711181641,557.4936221113281Z"></path></g><g><path style="mix-blend-mode:passthrough" fill-opacity="1" fill="#EBEEF4" d="M653.7500367431641,503.9568437988281C696.0600367431641,528.3838437988281,696.237036743164,567.9661437988282,654.2340367431641,592.3841437988281C612.1940367431641,616.8111437988281,543.8748367431641,616.8201437988281,501.56503674316406,592.3841437988281C459.28313674316405,567.9754437988281,459.03173674316406,528.3838437988281,501.07163674316405,503.94744379882815C543.0742367431641,479.53903379882814,611.459036743164,479.53903379882814,653.741036743164,503.94744379882815L653.7500367431641,503.9568437988281Z"></path></g><g><path style="mix-blend-mode:passthrough" fill-opacity="1" fill="#DBDFE6" d="M683.845857055664,559.6719053925781C681.779857055664,566.1696423925781,679.722857055664,572.6767023925781,677.673857055664,579.1745023925781C674.0998570556641,590.4757023925781,664.799857055664,601.2743023925781,649.7658570556641,610.0062023925781C610.155857055664,633.0276023925782,545.7551570556641,633.0369023925781,505.8844570556641,610.0062023925781C490.50575705566405,601.1346023925781,481.02912705566405,590.1220023925781,477.4637570556641,578.6253023925781L471.41285705566406,559.0762023925781C475.19233705566404,571.2804023925781,485.24615705566407,582.9633023925782,501.57435705566405,592.3935023925782C543.874857055664,616.8205023925781,612.193857055664,616.8112023925781,654.2338570556641,592.3841023925781C670.1808570556641,583.1123023925782,680.047857055664,571.6528023925781,683.836857055664,559.6719663925782L683.845857055664,559.6719053925781Z"></path></g><g><path style="mix-blend-mode:passthrough" fill-opacity="1" fill="#DBDFE6" d="M772.4413023681641,403.12082817382816C752.3893023681641,447.29212817382813,716.800302368164,478.3941281738281,703.842302368164,530.2271281738281C699.886302368164,545.0751281738281,687.9983023681641,559.3921281738282,668.281302368164,570.8241281738281C618.506302368164,599.8121281738281,537.4893023681641,599.8121281738281,487.4343023681641,570.9171281738281C465.83690236816403,558.4061281738282,453.50240236816404,542.6451281738281,450.43970236816403,526.3541281738281C437.2022023681641,477.9191281738281,401.9207023681641,445.1601281738281,382.83710236816404,403.12082817382816C365.9131623681641,366.0241281738281,365.99693336816404,335.4250781738281,366.3600005681641,327.5030521738281C368.87346236816404,356.84532817382814,389.58620236816404,385.8338281738281,428.4703023681641,408.3339281738281C511.29330236816406,456.1451281738281,645.241302368164,456.1451281738281,727.608302368164,408.2408281738281C766.5853023681641,385.6570281738281,787.0193023681641,356.30542817382815,788.8253023681641,326.6001281738281C789.1793023681641,332.90237817382814,790.082302368164,364.4974281738281,772.4413023681641,403.12082817382816Z"></path></g><g><path style="mix-blend-mode:passthrough" fill-opacity="1" fill="#EBEEF4" d="M375.36180111816407,314.0421173925781L375.29664611816406,314.0421173925781L375.29664611816406,311.4355773925781C375.29664611816406,312.31063839257814,375.32456971816407,313.17638739257814,375.36180111816407,314.0421173925781Z"></path></g><g><path style="mix-blend-mode:passthrough" fill-opacity="1" fill="#EBEEF4" d="M727.6078726806641,408.25071411132814C645.2408726806641,456.1367141113281,511.29287268066406,456.1367141113281,428.46947268066407,408.34371411132815C345.6557726806641,360.44771411132814,345.20897268066403,282.94061411132816,427.57577268066404,235.0454141113281C509.849872680664,187.25251411132814,643.713872680664,187.25251411132814,726.5278726806641,235.0454141113281C809.4348726806641,282.94061411132816,809.7978726806641,360.4387141113281,727.6078726806641,408.25071411132814Z"></path></g><g><path style="mix-blend-mode:passthrough" fill-opacity="1" fill="#28AF6E" d="M691.1261929931641,387.20217504882817C628.783192993164,423.45217504882817,527.398192993164,423.45217504882817,464.71029299316405,387.2761750488281C402.0228929931641,351.0271750488281,401.68779299316407,292.3610750488281,464.0214929931641,256.11147504882814C526.2991929931641,219.92706504882813,627.619192993164,219.92706504882813,690.3071929931641,256.11147504882814C753.069192993164,292.3610750488281,753.329192993164,351.0271750488281,691.1261929931641,387.20217504882817Z"></path></g><g><path style="mix-blend-mode:passthrough" fill-opacity="1" fill="#189453" d="M648.1917086181641,362.4492844238281C609.4107086181641,384.9962844238281,546.3411086181641,384.9962844238281,507.34530861816404,362.48648442382813C468.34025861816406,339.9398844238281,468.13544861816405,303.43888442382814,506.91710861816404,280.89228442382813C545.6616086181641,258.38293442382815,608.693708618164,258.38293442382815,647.6897086181641,280.89228442382813C686.731708618164,303.43888442382814,686.898708618164,339.9398844238281,648.201708618164,362.43998442382815L648.1917086181641,362.4492844238281Z"></path></g><g><path style="mix-blend-mode:passthrough" fill-opacity="0.1882352977991104" fill="#71D8F8" d="M779.9433570556641,267.5896047363281L779.9433570556641,318.1936047363281L779.9243570556641,318.1936047363281C779.161357055664,347.4436047363281,759.5753570556641,376.5436047363281,721.1843570556641,398.84760473632815C642.3553570556641,444.66760473632814,514.150357055664,444.66760473632814,434.83675705566407,398.8856047363281C403.3441570556641,380.6956047363281,375.10035705566406,352.08860473632814,375.10035705566406,315.5966047363281L375.10035705566406,267.5896047363281C375.10032653806405,155.78760473632812,465.7336570556641,65.16360473632812,577.535357055664,65.16360473632812C689.3383570556641,65.16360473632812,779.952357055664,155.79690473632814,779.952357055664,267.5896047363281L779.9433570556641,267.5896047363281Z"></path></g><g><path style="mix-blend-mode:passthrough" fill-opacity="1" fill="#49E4A3" d="M599.672827368164,169.7885266113281C586.3794273681641,173.18642661132813,567.2120273681641,161.63382661132812,559.131787368164,142.63392661132812Q551.0515273681641,123.64342661132812,564.940687368164,101.64602661132812C568.589827368164,111.31817661132813,582.050827368164,121.35332661132813,590.093827368164,126.68752661132812C600.724827368164,133.7158266113281,606.384727368164,146.38552661132812,603.9085273681641,158.87832661132813Q602.5959273681641,165.53432661132814,599.672827368164,169.7885266113281Z"></path></g><g><path style="mix-blend-mode:passthrough" fill-opacity="1" fill="#39C988" d="M597.1415914306641,169.82580395507813C597.216091430664,157.71460395507813,588.018691430664,145.66870395507812,579.7335914306641,136.81570395507813C575.4886914306641,132.02150395507812,569.642531430664,127.83250395507812,567.1197614306641,121.31610395507812C564.5163724306641,115.10870395507813,563.7631374306641,108.28096395507812,564.9507594306641,101.65530395507812C564.2432404306641,108.21821395507813,565.2951814306641,114.99520395507813,568.2555114306641,120.77620395507813C571.0016614306641,126.77120395507812,576.7267914306641,130.30870395507813,581.5302914306641,135.02840395507812C591.3327914306641,144.27230395507812,601.367891430664,156.19730395507813,602.187191430664,169.69540395507812L597.1415914306641,169.82580395507813Z"></path></g><g><path style="mix-blend-mode:passthrough" fill-opacity="1" fill="#613941" d="M509.71949768066406,315.41072114257815L509.71949768066406,315.5130211425781C509.71949768066406,317.30972114257816,509.98014868066406,319.10642114257814,510.55732768066406,320.84712114257815C512.6053276806641,327.60552114257814,518.702807680664,334.0660211425781,528.691497680664,339.27922114257814C554.0679976806641,352.4050211425781,595.4375976806641,352.4050211425781,621.0654976806641,339.27922114257814C633.902497680664,332.6697211425781,640.260497680664,324.0681211425781,640.260497680664,315.41072114257815L640.260497680664,315.36412114257814C640.158497680664,282.8661211425781,610.620497680664,257.2754211425781,575.0041976806641,257.2754211425781C538.903597680664,257.2754211425781,509.7195281982641,283.3409211425781,509.71949768066406,315.41072114257815Z"></path></g><g><path style="mix-blend-mode:passthrough" fill-opacity="1" fill="#804F59" d="M509.71949768066406,315.4107437988281L509.71949768066406,315.5130437988281C509.71949768066406,317.3097437988281,509.98014868066406,319.10644379882814,510.55732768066406,320.8472437988281C513.098737680664,322.98824379882814,516.161427680664,324.98974379882816,519.7081776806641,326.8329437988281C545.0847976806641,339.9587437988281,586.454297680664,339.9587437988281,612.0824976806641,326.8329437988281C624.9194976806641,320.2793437988281,631.277497680664,311.62184379882814,631.277497680664,303.0203437988281L631.277497680664,302.96444379882814C631.2324976806641,294.2179437988281,629.032497680664,285.61734379882813,624.8724976806641,277.92304379882813C612.9104976806641,265.3091737988281,595.0372976806641,257.2661437988281,575.013497680664,257.2661437988281C538.903497680664,257.2661437988281,509.7195281982641,283.3409437988281,509.71949768066406,315.4107437988281Z"></path></g><g><path style="mix-blend-mode:passthrough" fill-opacity="1" fill="#49E4A3" d="M552.122147680664,188.53710317382811C540.7371476806641,197.98580317382812,516.7475476806641,195.54690317382813,500.1308476806641,180.76400317382812Q483.5048376806641,165.97190317382814,486.8840486806641,138.14700317382812C494.8898776806641,145.88286317382813,512.623647680664,149.46690317382811,522.910247680664,150.94700317382814C536.5014476806641,152.90190317382812,547.8585476806641,162.64850317382812,551.2098476806641,175.95120317382813Q552.997247680664,183.04480317382811,552.1128476806641,188.53710317382811L552.122147680664,188.53710317382811Z"></path></g><g><path style="mix-blend-mode:passthrough" fill-opacity="1" fill="#39C988" d="M549.8698367431641,189.67282583007812C544.2285367431641,177.80372583007812,529.650436743164,169.80722583007812,517.3345367431641,165.2272258300781C513.9745367431641,164.01892583007813,510.56783674316404,162.94442583007813,507.1224367431641,162.00622583007814C503.52293674316405,161.02422583007814,500.1829367431641,159.26372583007813,497.33863674316405,156.84902583007812C491.6787267431641,152.04552583007813,488.2808967431641,145.17539583007812,486.88453674316406,138.13772583007812C488.67188674316407,145.08230583007813,492.46998674316404,151.63592583007812,498.1206367431641,155.86222583007813C503.65953674316404,160.40502583007813,511.17193674316405,160.47952583007813,518.135136743164,162.84402583007812C532.033636743164,167.10762583007812,547.365636743164,174.73172583007812,554.366136743164,187.40142583007813L549.8698367431641,189.67282583007812Z"></path></g><g><path style="mix-blend-mode:passthrough" fill-opacity="1" fill="#49E4A3" d="M579.8073883056641,230.14866176757812C590.7362883056641,242.84626176757814,617.993288305664,244.65216176757812,639.3575883056641,231.2657617675781Q660.721988305664,217.87926176757813,662.1927883056641,186.14456176757812C651.7851883056641,193.28464176757814,631.2959883056641,193.94559176757812,619.519988305664,193.66630176757812C603.973788305664,193.28464176757814,589.451618305664,202.02586176757814,583.1958783056641,216.25946176757813Q579.853897105664,223.84636176757812,579.8073883056641,230.14866176757812Z"></path></g><g><path style="mix-blend-mode:passthrough" fill-opacity="1" fill="#39C988" d="M577.7878570556641,228.64058754882814C587.878957055664,215.85918754882812,606.3574570556641,210.21788754882812,622.5738570556641,208.00228754882812C630.747257055664,206.6338875488281,639.1812570556641,207.9557875488281,646.2561570556641,203.94348754882813C653.377657055664,200.27578754882813,658.8234570556641,193.65697754882814,662.193357055664,186.29348754882812C657.408457055664,198.33018754882812,647.7176570556641,207.75098754882814,634.9828570556641,208.84938754882813C616.6160570556641,210.71118754882812,592.486857055664,216.52938754882814,581.8558470556641,231.62878754882811L577.7878570556641,228.64058754882814Z"></path></g><g><path style="mix-blend-mode:passthrough" fill-opacity="1" fill="#49E4A3" d="M571.327302368164,255.77637426757812C560.9011023681641,263.0932742675781,540.467702368164,259.3324742675781,527.220902368164,245.48047426757813Q513.9740723681641,231.62857426757813,518.8147723681641,207.96487426757812C525.1449723681641,215.17010426757813,540.132602368164,219.48027426757812,548.864502368164,221.46307426757812C560.3892023681641,224.08827426757813,569.465502368164,233.24837426757813,571.4204023681641,244.91267426757813Q572.4630023681641,251.1218742675781,571.327302368164,255.77637426757812Z"></path></g><g><path style="mix-blend-mode:passthrough" fill-opacity="1" fill="#39C988" d="M568.972180493164,256.7073906738281C565.080980493164,246.18809067382813,553.1839804931641,238.31259067382814,543.0556804931641,233.50909067382813C534.612280493164,229.56209067382812,531.382080493164,229.7295906738281,526.4854904931641,224.87029067382812C521.942640493164,220.34609067382812,519.540908493164,214.18346067382814,518.7868804931641,208.07669067382812C519.9411804931641,214.12759067382814,522.7711904931641,219.99229067382814,527.3419304931641,223.94869067382814C531.7916804931641,228.14709067382813,538.214980493164,228.68699067382812,544.0517804931641,231.19119067382812C555.743980493164,235.80849067382812,568.4415804931641,243.36749067382812,573.654680493164,254.8176906738281L568.972180493164,256.7073906738281Z"></path></g><g><path style="mix-blend-mode:passthrough" fill-opacity="1" fill="#39C988" d="M588.0552101806641,205.97279223632813C576.791310180664,221.23979223632813,578.2435101806641,262.51579223632814,579.174410180664,281.3577922363281C574.640910180664,283.1727922363281,568.534110180664,283.01479223632816,564.251910180664,280.9017922363281C563.4885101806641,263.3537922363281,564.9966101806641,236.59079223632813,566.420910180664,218.97779223632813Q524.967510180664,161.44739223632814,538.381910180664,119.44479223632813C545.0379201806641,154.03739223632812,554.6728101806641,185.75379223632814,575.4414101806641,207.13679223632812Q577.8618101806641,193.51679223632811,587.8970101806641,179.09779223632813Q620.665010180664,132.60779223632812,619.268610180664,69.78079223632812C634.6938101806641,130.84839223632812,602.065410180664,186.96379223632812,588.0459101806641,205.97279223632813L588.0552101806641,205.97279223632813Z"></path></g><g><path style="mix-blend-mode:passthrough" fill-opacity="1" fill="#39C988" d="M600.9949726806641,204.70710395507814C599.2643726806641,209.47750395507813,597.464372680664,214.2226039550781,595.595672680664,218.9407039550781L594.7672726806641,217.14400395507812C601.215772680664,218.31020395507812,607.4536726806641,220.43450395507813,613.273672680664,223.44580395507813L613.1992726806641,223.74380395507814C606.656472680664,223.33680395507812,600.2115726806641,221.95380395507811,594.0783726806641,219.63880395507812L592.570372680664,219.08030395507814C595.2513726806641,214.22090395507814,597.9044726806641,209.36160395507812,600.715772680664,204.57670395507813L600.9949726806641,204.70710395507814ZM550.465272680664,226.30380395507814C553.276572680664,231.09880395507813,555.938972680664,235.96680395507812,558.610672680664,240.81680395507811C555.9110726806641,241.64580395507812,548.789572680664,244.89480395507815,537.981672680664,245.47180395507814L537.907272680664,245.18280395507813C543.727172680664,242.17080395507813,549.9650726806641,240.04680395507813,556.413672680664,238.88080395507814L555.5851726806641,240.6678039550781C553.7164726806641,235.94980395507812,551.916472680664,231.20480395507812,550.185972680664,226.4348039550781L550.465272680664,226.30380395507814ZM531.9215726806641,221.29580395507813C533.811272680664,224.0888039550781,535.5520726806641,226.97480395507813,537.423172680664,230.04680395507813C536.333972680664,230.40980395507813,531.4280726806641,233.26780395507814,524.5301026806641,232.65280395507813L524.4463026806641,232.37380395507813C527.627872680664,230.09880395507813,531.332672680664,228.66380395507812,535.2169726806641,228.20280395507814L534.3976726806641,229.9998039550781C533.429572680664,227.1608039550781,532.470672680664,224.3218039550781,531.6422726806641,221.42580395507812L531.9215726806641,221.29580395507813ZM524.3811826806641,155.7226039550781C527.1366726806641,160.37720395507813,529.761872680664,165.18070395507812,532.433572680664,170.03070395507814L530.944072680664,170.61720395507814C526.3309726806641,172.51030395507811,521.3897826806641,173.4751039550781,516.403335580664,173.45640395507812L516.3288726806641,173.16790395507812C520.594862680664,170.59010395507812,525.327222680664,168.87870395507812,530.255272680664,168.13160395507813L529.4360726806641,169.91900395507813C527.5932726806641,165.25630395507812,525.8181926806641,160.56710395507812,524.111222680664,155.85290395507812L524.3811826806641,155.7226039550781ZM593.8269726806641,135.08440395507813C593.696672680664,140.5488039550781,593.398772680664,146.00390395507813,593.110172680664,151.48700395507814L591.5276726806641,151.20770395507813C586.6113726806641,150.37540395507813,581.9074726806641,148.58180395507813,577.685072680664,145.92950395507813L577.778172680664,145.64090395507813C582.8981726806641,145.65950395507812,587.6923726806641,146.83240395507812,592.2630726806641,148.72220395507813L590.6153726806641,149.81140395507813C591.5462726806641,144.8775039550781,592.458572680664,139.9623039550781,593.529172680664,135.04710395507811L593.8269726806641,135.08440395507813ZM577.377872680664,121.09280395507812C578.085372680664,125.43084395507813,578.625272680664,129.82473395507813,579.193072680664,134.2559039550781C576.9216726806641,134.06970395507813,570.8241726806641,134.60960395507811,563.0510726806641,131.24900395507814L563.0883726806641,130.95112395507812C568.0212726806641,130.21469395507813,573.0510726806641,130.45826395507814,577.889772680664,131.66790395507812L576.4375726806641,132.9991039550781C576.6050726806641,129.03346395507813,576.763372680664,125.06778395507813,577.0705726806641,121.10211181507813L577.377872680664,121.09280395507812Z"></path></g><g><path style="mix-blend-mode:passthrough" fill-opacity="1" fill="#49E4A3" d="M613.2834598681641,150.08095395507812C624.9570898681641,157.30475395507813,646.703089868164,152.0079539550781,660.089589868164,136.29415395507812Q673.4759898681641,120.58045395507813,666.7920898681641,95.43655395507812C660.424689868164,103.58200395507812,644.5806898681641,109.13025395507813,635.308789868164,111.82055395507813C623.067289868164,115.33935395507812,613.879289868164,125.74695395507813,612.501540868164,138.40735395507812Q611.7661288681641,145.14705395507812,613.2834598681641,150.08095395507812Z"></path></g><g><path style="mix-blend-mode:passthrough" fill-opacity="1" fill="#39C988" d="M610.9187164306641,149.25281958007812C615.7315264306641,136.60181958007814,628.8666164306641,128.23291958007812,640.9871164306641,122.34961958007813C646.972816430664,119.27761958007812,653.498516430664,117.60191958007812,657.9203164306641,112.70541958007813C662.4631164306641,108.07871958007813,665.4979164306641,101.92544958007812,666.7919164306641,95.44631958007812C665.944216430664,102.12507958007812,663.183316430664,108.41621958007812,658.841916430664,113.56181958007812C654.476016430664,119.02621958007812,647.6524164306641,121.28831958007812,642.1600164306641,124.57451958007812C631.6035164306641,130.55091958007813,619.231766430664,139.29211958007812,615.6850164306641,150.88191958007812L610.9187164306641,149.25281958007812Z"></path></g><g><path style="mix-blend-mode:passthrough" fill-opacity="1" fill="#39C988" d="M629.537291430664,118.77457848632812C629.064491430664,123.76579848632812,628.518291430664,128.74979848632813,627.898791430664,133.72499848632813L626.651391430664,132.19829848632813C631.6136914306641,131.68889848632813,636.6276914306641,132.16339848632813,641.406291430664,133.59469848632813L641.406291430664,133.89249848632812C636.4537914306641,135.23309848632812,631.519991430664,135.38199848632811,626.604791430664,134.77689848632812L625.022291430664,134.59069848632814C626.381391430664,129.25659848632813,627.740591430664,123.93179848632812,629.239291430664,118.71872848632813L629.537291430664,118.77457848632812ZM649.4028914306641,110.37778468632813C648.509191430664,114.25967848632813,647.485191430664,118.09502848632812,646.4518914306641,121.92109848632812L645.4650914306641,120.21749848632813C650.3988914306641,120.57119848632813,655.2117914306641,121.67899848632813,659.8010914306641,123.95979848632813L659.7544914306641,124.25759848632812C654.7884914306641,124.73249848632813,649.777691430664,124.22319848632813,645.0088914306641,122.75889848632812L643.4542914306641,122.29339848632813C645.288191430664,118.29051848632812,647.131391430664,114.23174848632813,649.114191430664,110.28469848632812L649.4028914306641,110.37778468632813ZM619.799941430664,197.38989848632812C618.068801430664,202.16009848632814,616.2688114306641,206.90519848632812,614.4006514306641,211.62369848632812L613.5814314306641,209.82679848632813C618.516251430664,210.57569848632812,623.2549914306641,212.28969848632812,627.526491430664,214.87269848632812L627.442691430664,215.15169848632814C622.4537914306641,215.17269848632813,617.5096614306641,214.21169848632815,612.892531430664,212.32169848632813L611.4030914306641,211.72569848632813C614.084121430664,206.8664984863281,616.7372014306641,202.01649848632815,619.5299214306641,197.25949848632814L619.799941430664,197.38989848632812ZM642.9795914306641,197.65979848632813C640.689491430664,201.43929848632814,638.2970914306641,205.14429848632813,635.9046914306641,208.8399984863281L635.215791430664,206.81999848632813C640.1492914306641,207.56299848632813,644.8879914306641,209.27119848632813,649.160891430664,211.84669848632814L649.0677914306641,212.14469848632814C644.0813914306641,212.16169848632813,639.140591430664,211.19769848632814,634.5269914306641,209.30549848632813L632.693091430664,208.57939848632813C636.0257914306641,204.8184984863281,639.3304914306641,201.05759848632812,642.728391430664,197.47359848632811L642.9795914306641,197.65979848632813Z"></path></g><g><path style="mix-blend-mode:passthrough" fill-opacity="1" fill="#804F59" d="M320.90387268066405,478.0309680175781C320.34387268066405,494.0919680175781,311.55787268066405,508.73396801757815,297.6498726806641,516.7849680175782L211.93137268066405,568.3849680175781C206.31697268066407,571.7529680175782,199.03663268066407,569.9509680175781,195.64042268066407,564.3539680175782C192.27928268066407,558.7299680175781,194.09797668066406,551.4469680175781,199.70849268066405,548.0629680175781L285.5941726806641,496.37896801757813C292.81057268066405,492.26596801757813,297.26387268066406,484.5959680175781,297.25887268066407,476.29016801757814L297.01687268066405,391.2422680175781C297.01687268066405,384.7166480175781,302.3228726806641,379.3732300175781,308.83887268066405,379.3359680175781L308.8858726806641,379.3359680175781C315.40187268066404,379.3359680175781,320.74487268066406,384.6421480175781,320.74487268066406,391.19576801757813C320.99687268066407,482.1639680175781,321.03387268066405,477.0534680175781,320.90387268066405,478.0309680175781Z"></path></g><g><path style="mix-blend-mode:passthrough" fill-opacity="1" fill="#613941" d="M240.01687268066405,523.8037414550781L199.70852268066406,548.0632414550781C194.09797668066406,551.4469414550781,192.27926268066406,558.7301414550782,195.64045268066405,564.3541414550781C199.03666268066405,569.9513414550781,206.31697268066407,571.7527414550781,211.93137268066405,568.3849414550781L240.01687268066405,551.4796414550781L240.01687268066405,523.8037414550781Z"></path></g><g><path style="mix-blend-mode:passthrough" fill-opacity="1" fill="#804F59" d="M220.98864611816407,455.32623291017813L220.70944611816407,671.5762023925781C210.93484611816407,673.0662023925781,200.50868611816406,673.0662023925781,190.73414611816406,671.4832023925782L191.01341211816407,455.3262023925781C191.01341211816407,457.4672823925781,192.59596611816406,459.7945523925781,195.48177611816405,461.4702123925781C201.34654611816407,464.8215023925781,210.84174611816405,464.8215023925781,216.61344611816406,461.4702123925781C219.59234611816407,459.7014723925781,220.98864611816407,457.56039239257814,220.98864611816407,455.32623291017813Z"></path></g><g><path style="mix-blend-mode:passthrough" fill-opacity="1" fill="#49E4A3" d="M283.592091430664,463.96507583007815C283.592091430664,506.9169758300781,248.73009143066406,541.7329758300781,205.78689143066407,541.7329758300781C162.84409143066407,541.7329758300781,128.02809143066406,506.9169758300781,128.02809143066406,463.97437583007815C128.02809143066406,420.98497583007816,162.84409143066407,386.1689758300781,205.78689143066407,386.1689758300781C248.73009143066406,386.1689758300781,283.592091430664,420.98497583007816,283.592091430664,463.97437583007815L283.592091430664,463.96507583007815Z"></path></g><g><path style="mix-blend-mode:passthrough" fill-opacity="1" fill="#613941" d="M320.9029648681641,478.0309680175781C312.64576486816406,480.63796801757815,304.79823486816406,481.50296801757816,296.74586486816406,481.19596801757814C297.70469686816404,476.9324680175781,297.0996248681641,478.6174680175781,297.02513086816407,391.2422680175781C297.02513086816407,384.7166480175781,302.3220048681641,379.3732300175781,308.8476648681641,379.3359680175781L308.8848648681641,379.3359680175781C315.40126486816405,379.3359680175781,320.7446648681641,384.6421480175781,320.7446648681641,391.19576801757813C320.99606486816407,482.1639680175781,321.03326486816405,477.0534680175781,320.9029648681641,478.0309680175781Z"></path></g><g><path style="mix-blend-mode:passthrough" fill-opacity="1" fill="#39C988" d="M354.08086486816404,411.24744223632814C354.07086486816405,441.1989422363281,329.7792648681641,465.47004223632814,299.82766486816405,465.4540422363281L299.39016486816405,465.4540422363281C269.62746486816405,465.22504223632814,245.62084960936406,441.02324223632814,245.62086486816406,411.24744223632814C245.62086486816406,368.2487422363281,293.13446486816406,342.64874223632813,328.84416486816406,365.4560522363281C344.5752648681641,375.3594422363281,354.1058648681641,392.65864223632815,354.0718648681641,411.24744223632814L354.08086486816404,411.24744223632814Z"></path></g><g><path style="mix-blend-mode:passthrough" fill-opacity="1" fill="#49E4A3" d="M339.7173101806641,398.01949301757816C339.7173101806641,441.1484930175781,291.90581018066405,466.44159301757816,256.4754101806641,443.7922930175781C249.40208018066406,434.42199301757813,245.58403018066406,422.99729301757816,245.60237121586405,411.2569930175781C245.60237121586405,368.13729301757814,293.26491018066406,342.7886930175781,328.8536101806641,365.4469930175781C335.93131018066407,374.83209301757813,339.74641018066404,386.2739930175781,339.7173101806641,398.0287930175781L339.7173101806641,398.01949301757816Z"></path></g><g><path style="mix-blend-mode:passthrough" fill-opacity="1" fill="#613941" d="M220.97897424316406,455.3354797363281L220.82077424316407,556.3294797363282C210.89597424316406,557.9654797363281,200.77026424316406,557.9654797363281,190.84547424316406,556.3294797363282L191.05027724316406,455.3354797363281C191.05027724316406,457.51378973632814,192.54904424316408,459.76659973632815,195.48140424316406,461.4236097363281C201.32747424316406,464.83074973632813,210.82277424316408,464.83074973632813,216.63167424316407,461.4236097363281C219.55467424316407,459.7293697363281,220.97897424316406,457.55102973632813,220.97897424316406,455.3354797363281Z"></path></g><g><path style="mix-blend-mode:passthrough" fill-opacity="1" fill="#39C988" d="M283.61053674316406,463.9650531738281C283.61053674316406,506.9362531738281,248.72953674316406,541.7332531738282,205.78703674316407,541.7332531738282C162.67663674316407,541.7332531738282,128.00953674316406,506.7122531738281,128.00953674316406,463.95575317382816C127.99924464316406,421.0034531738281,162.82443674316406,386.1782531738281,205.78703674316407,386.1782531738281C248.65553674316408,386.1782531738281,283.61053674316406,420.9197531738281,283.61053674316406,463.95575317382816L283.61053674316406,463.9650531738281Z"></path></g><g><path style="mix-blend-mode:passthrough" fill-opacity="1" fill="#49E4A3" d="M266.33332580566406,448.0652531738281C266.33332580566406,490.99925317382815,231.45132580566406,525.7962531738281,188.50892580566406,525.7962531738281C173.02102580566407,525.8162531738282,157.88342580566407,521.1892531738281,145.05412580566406,512.5122531738282C133.99174580566407,498.7502531738281,127.97925570566406,481.6128531738281,128.01847839366405,463.95585317382813C128.01330566566406,421.0021531738281,162.83282580566407,386.1784057618281,205.78662580566407,386.17843627882814C221.27402580566405,386.1436462738281,236.41532580566405,390.7583631738281,249.25032580566406,399.42525317382814C250.10732580566406,400.94265317382815,266.32332580566407,418.56475317382814,266.32332580566407,448.0652531738281L266.33332580566406,448.0652531738281Z"></path></g><g><path style="mix-blend-mode:passthrough" fill-opacity="1" fill="#39C988" d="M271.10970080566403,362.29116879882815C271.09870080566407,398.3502687988281,241.85670080566405,427.5762687988281,205.78740080566405,427.5762687988281C169.72860080566406,427.56526879882813,140.50271606446407,398.33926879882813,140.50271606446407,362.29116879882815C140.48214720566406,326.2208687988281,169.71710080566407,296.96929931642813,205.78740080566405,296.9692687988281C241.45070080566404,296.9692687988281,271.10970080566403,325.82746879882814,271.10970080566403,362.29116879882815Z"></path></g><g><path style="mix-blend-mode:passthrough" fill-opacity="1" fill="#49E4A3" d="M253.83170080566407,346.3631234863281C253.81670080566406,382.41822348632815,224.57510080566408,411.63882348632814,188.50980080566407,411.63882348632814C176.14110080566405,411.66482348632815,164.02490080566406,408.1398234863281,153.60070080566408,401.48182348632815C145.07852080566406,390.1959234863281,140.47900390566406,376.43342348632814,140.50279235836408,362.29102348632813C140.49604797566406,338.4799234863281,153.45350080566405,316.5537234863281,174.31490080566405,305.0748934863281C195.17640080566406,293.5960734863281,220.63290080566406,294.38537348632815,240.74270080566407,307.1346234863281C249.26770080566405,318.43322348632813,253.86370080566405,332.20942348632815,253.83170080566407,346.3631234863281Z"></path></g></g></g></svg>