<?xml version="1.0" standalone="no"?><!DOCTYPE svg PUBLIC "-//W3C//DTD SVG 1.1//EN" "http://www.w3.org/Graphics/SVG/1.1/DTD/svg11.dtd"><svg t="1742906625679" class="icon" viewBox="0 0 1024 1024" version="1.1" xmlns="http://www.w3.org/2000/svg" p-id="1704" xmlns:xlink="http://www.w3.org/1999/xlink" width="32" height="32"><path d="M483.84 85.617778a39.822222 39.822222 0 0 1 56.32 0L647.907556 193.422222H790.755556a39.822222 39.822222 0 0 1 39.480888 34.417778l0.341334 5.404444v142.848l107.804444 107.747556a39.822222 39.822222 0 0 1 4.209778 51.370667l-4.209778 4.949333-107.804444 107.690667V790.755556a39.822222 39.822222 0 0 1-34.417778 39.480888l-5.404444 0.341334h-142.904889l-107.690667 107.804444a39.822222 39.822222 0 0 1-51.370667 4.209778l-4.949333-4.209778L376.092444 830.577778H233.244444a39.822222 39.822222 0 0 1-39.480888-34.417778L193.422222 790.755556v-142.848L85.617778 540.16a39.822222 39.822222 0 0 1-4.209778-51.370667l4.209778-4.949333L193.422222 376.035556V233.244444a39.822222 39.822222 0 0 1 34.417778-39.480888L233.244444 193.422222h142.791112l107.804444-107.804444zM512 170.040889L420.693333 261.404444A39.822222 39.822222 0 0 1 392.533333 273.066667H273.066667v119.466666a39.822222 39.822222 0 0 1-7.566223 23.324445l-4.096 4.835555L170.040889 512l91.363555 91.306667a39.822222 39.822222 0 0 1 11.150223 21.902222l0.512 6.257778v119.466666h119.466666a39.822222 39.822222 0 0 1 23.324445 7.566223l4.835555 4.096L512 853.959111l91.306667-91.363555a39.822222 39.822222 0 0 1 21.902222-11.150223l6.257778-0.512h119.466666v-119.466666a39.822222 39.822222 0 0 1 7.566223-23.324445l4.096-4.835555L853.959111 512l-91.363555-91.306667a39.822222 39.822222 0 0 1-11.150223-21.902222L750.933333 392.533333V273.066667h-119.466666a39.822222 39.822222 0 0 1-23.324445-7.566223l-4.835555-4.096L512 170.040889z" p-id="1705" fill="#ffffff"></path><path d="M512 352.711111a159.288889 159.288889 0 1 1 0 318.577778 159.288889 159.288889 0 0 1 0-318.577778z m0 79.644445a79.644444 79.644444 0 1 0 0 159.288888 79.644444 79.644444 0 0 0 0-159.288888z" p-id="1706" fill="#ffffff"></path></svg>